<svg width="110" height="30" viewBox="0 0 110 30" fill="none" xmlns="http://www.w3.org/2000/svg">
<rect x="18" width="60" height="30" rx="15" fill="#482FF7"/>
<path d="M37.775 14C37.775 12.9167 37.9667 11.85 38.35 10.8C38.75 9.75 39.325 8.8 40.075 7.95C40.825 7.1 41.7417 6.425 42.825 5.925C43.9083 5.40833 45.1417 5.15 46.525 5.15C48.1417 5.15 49.55 5.50833 50.75 6.225C51.95 6.94167 52.8417 7.875 53.425 9.025L50.775 10.85C50.475 10.1833 50.0833 9.65833 49.6 9.275C49.1167 8.89167 48.5917 8.61667 48.025 8.45C47.475 8.28333 46.9417 8.2 46.425 8.2C45.5583 8.2 44.8 8.375 44.15 8.725C43.5167 9.075 42.9833 9.53333 42.55 10.1C42.1167 10.6667 41.7917 11.3 41.575 12C41.375 12.7 41.275 13.4 41.275 14.1C41.275 15.15 41.4917 16.1333 41.925 17.05C42.3583 17.95 42.9667 18.6833 43.75 19.25C44.5333 19.8167 45.4417 20.1 46.475 20.1C47.0083 20.1 47.5583 20.0083 48.125 19.825C48.7083 19.6417 49.2417 19.35 49.725 18.95C50.2083 18.55 50.5833 18.0333 50.85 17.4L53.675 19.025C53.3083 19.9083 52.7333 20.6583 51.95 21.275C51.1667 21.875 50.2833 22.3417 49.3 22.675C48.3167 22.9917 47.3417 23.15 46.375 23.15C45.1083 23.15 43.95 22.8917 42.9 22.375C41.8667 21.8417 40.9667 21.1417 40.2 20.275C39.4333 19.3917 38.8333 18.4083 38.4 17.325C37.9833 16.225 37.775 15.1167 37.775 14ZM55.6387 4.75H58.9887V18.8C58.9887 19.4167 59.0887 19.825 59.2887 20.025C59.4887 20.225 59.7637 20.325 60.1137 20.325C60.3803 20.325 60.6553 20.2917 60.9387 20.225C61.222 20.1583 61.472 20.075 61.6887 19.975L62.1387 22.525C61.6887 22.7417 61.1637 22.9083 60.5637 23.025C59.9637 23.1417 59.422 23.2 58.9387 23.2C57.8887 23.2 57.072 22.925 56.4887 22.375C55.922 21.8083 55.6387 21.0083 55.6387 19.975V4.75ZM69.6482 23.25C68.2149 23.25 66.9816 22.9417 65.9482 22.325C64.9316 21.6917 64.1482 20.8583 63.5982 19.825C63.0482 18.7917 62.7732 17.675 62.7732 16.475C62.7732 15.2583 63.0482 14.1333 63.5982 13.1C64.1649 12.0667 64.9566 11.2417 65.9732 10.625C67.0066 9.99167 68.2316 9.675 69.6482 9.675C71.0649 9.675 72.2816 9.99167 73.2982 10.625C74.3316 11.2417 75.1232 12.0667 75.6732 13.1C76.2232 14.1333 76.4982 15.2583 76.4982 16.475C76.4982 17.675 76.2232 18.7917 75.6732 19.825C75.1232 20.8583 74.3316 21.6917 73.2982 22.325C72.2816 22.9417 71.0649 23.25 69.6482 23.25ZM66.2232 16.475C66.2232 17.2417 66.3732 17.925 66.6732 18.525C66.9732 19.1083 67.3816 19.5667 67.8982 19.9C68.4149 20.2333 68.9982 20.4 69.6482 20.4C70.2816 20.4 70.8566 20.2333 71.3732 19.9C71.8899 19.55 72.2982 19.0833 72.5982 18.5C72.9149 17.9 73.0732 17.2167 73.0732 16.45C73.0732 15.7 72.9149 15.0333 72.5982 14.45C72.2982 13.85 71.8899 13.3833 71.3732 13.05C70.8566 12.7 70.2816 12.525 69.6482 12.525C68.9982 12.525 68.4149 12.7 67.8982 13.05C67.3816 13.3833 66.9732 13.85 66.6732 14.45C66.3732 15.0333 66.2232 15.7083 66.2232 16.475Z" fill="white"/>
<path d="M79.4 18.1V9.9H82.75V17.375C82.75 19.3917 83.475 20.4 84.925 20.4C85.575 20.4 86.2 20.2083 86.8 19.825C87.4167 19.425 87.9167 18.825 88.3 18.025V9.9H91.65V19.25C91.65 19.6167 91.7083 19.875 91.825 20.025C91.9417 20.1583 92.15 20.2417 92.45 20.275V23C92.1167 23.0667 91.8333 23.1083 91.6 23.125C91.3833 23.1417 91.1833 23.15 91 23.15C90.4 23.15 89.9083 23.0167 89.525 22.75C89.1583 22.4667 88.9417 22.0833 88.875 21.6L88.8 20.55C88.2167 21.45 87.4667 22.125 86.55 22.575C85.6333 23.025 84.625 23.25 83.525 23.25C82.175 23.25 81.15 22.8167 80.45 21.95C79.75 21.0667 79.4 19.7833 79.4 18.1ZM94.1791 16.45C94.1791 15.2 94.4291 14.0583 94.9291 13.025C95.4291 11.9917 96.1208 11.175 97.0041 10.575C97.8874 9.975 98.8958 9.675 100.029 9.675C100.996 9.675 101.862 9.91667 102.629 10.4C103.412 10.8667 104.021 11.4667 104.454 12.2V4.75H107.804V19.25C107.804 19.6167 107.862 19.875 107.979 20.025C108.096 20.1583 108.296 20.2417 108.579 20.275V23C107.979 23.1167 107.504 23.175 107.154 23.175C106.554 23.175 106.054 23.025 105.654 22.725C105.271 22.425 105.054 22.0333 105.004 21.55L104.954 20.725C104.471 21.5417 103.812 22.1667 102.979 22.6C102.162 23.0333 101.304 23.25 100.404 23.25C99.1874 23.25 98.1124 22.95 97.1791 22.35C96.2458 21.7333 95.5124 20.9167 94.9791 19.9C94.4458 18.8667 94.1791 17.7167 94.1791 16.45ZM104.454 18.2V15.075C104.187 14.3417 103.729 13.7333 103.079 13.25C102.429 12.7667 101.762 12.525 101.079 12.525C100.396 12.525 99.7958 12.7167 99.2791 13.1C98.7624 13.4667 98.3624 13.9583 98.0791 14.575C97.7958 15.175 97.6541 15.825 97.6541 16.525C97.6541 17.2417 97.8124 17.9 98.1291 18.5C98.4458 19.0833 98.8708 19.55 99.4041 19.9C99.9541 20.2333 100.579 20.4 101.279 20.4C101.912 20.4 102.537 20.1917 103.154 19.775C103.787 19.3583 104.221 18.8333 104.454 18.2Z" fill="#482FF7"/>
<rect x="10" y="22" width="15" height="1" rx="0.5" fill="#482FF7" fill-opacity="0.5"/>
<rect x="10" y="22" width="15" height="1" rx="0.5" fill="url(#paint0_linear)" fill-opacity="0.5"/>
<path d="M0 15.5C0 15.2239 0.223858 15 0.5 15H24.5C24.7761 15 25 15.2239 25 15.5C25 15.7761 24.7761 16 24.5 16H0.5C0.223857 16 0 15.7761 0 15.5Z" fill="#482FF7" fill-opacity="0.5"/>
<path d="M0 15.5C0 15.2239 0.223858 15 0.5 15H24.5C24.7761 15 25 15.2239 25 15.5C25 15.7761 24.7761 16 24.5 16H0.5C0.223857 16 0 15.7761 0 15.5Z" fill="url(#paint1_linear)" fill-opacity="0.5"/>
<rect x="5" y="9" width="20" height="1" rx="0.5" fill="#482FF7" fill-opacity="0.5"/>
<rect x="5" y="9" width="20" height="1" rx="0.5" fill="url(#paint2_linear)" fill-opacity="0.5"/>
<defs>
<linearGradient id="paint0_linear" x1="25" y1="23" x2="16.2446" y2="22.8749" gradientUnits="userSpaceOnUse">
<stop stop-color="#2D6CDF"/>
<stop offset="1" stop-color="white" stop-opacity="0"/>
</linearGradient>
<linearGradient id="paint1_linear" x1="31" y1="17.0001" x2="16.413" y2="16.6527" gradientUnits="userSpaceOnUse">
<stop stop-color="#2D6CDF"/>
<stop offset="1" stop-color="white" stop-opacity="0"/>
</linearGradient>
<linearGradient id="paint2_linear" x1="25" y1="9.99999" x2="13.328" y2="9.77767" gradientUnits="userSpaceOnUse">
<stop stop-color="#2D6CDF"/>
<stop offset="1" stop-color="white" stop-opacity="0"/>
</linearGradient>
</defs>
</svg>
